<svg width="46" height="56" viewBox="0 0 46 56" fill="none" xmlns="http://www.w3.org/2000/svg">
<path d="M5.85754 33C3.98169 29.9281 2.99268 26.3969 3.00004 22.7975C3.00004 11.8625 11.955 3 23 3C34.045 3 43 11.8625 43 22.7975C43.0074 26.3969 42.0184 29.9281 40.1425 33M30.5 45.5L30.175 47.1175C29.825 48.885 29.6475 49.7675 29.25 50.4675C28.6375 51.5464 27.6458 52.359 26.4675 52.7475C25.705 53 24.8 53 23 53C21.2 53 20.295 53 19.5325 52.75C18.3539 52.3609 17.3621 51.5473 16.75 50.4675C16.3525 49.7675 16.175 48.885 15.825 47.1175L15.5 45.5M23 38V25.5M11.4575 40.745C11.2275 40.055 11.1125 39.7075 11.125 39.4275C11.1392 39.138 11.2369 38.8588 11.4064 38.6236C11.5759 38.3885 11.8099 38.2075 12.08 38.1025C12.34 38 12.705 38 13.43 38H32.57C33.2975 38 33.66 38 33.92 38.1C34.1906 38.2051 34.4248 38.3865 34.5944 38.6222C34.7639 38.8578 34.8614 39.1375 34.875 39.4275C34.8875 39.7075 34.7725 40.0525 34.5425 40.745C34.1175 42.0225 33.905 42.6625 33.5775 43.18C32.8925 44.2615 31.8188 45.0391 30.5775 45.3525C29.9825 45.5 29.3125 45.5 27.97 45.5H18.03C16.6875 45.5 16.015 45.5 15.4225 45.35C14.1817 45.0372 13.108 44.2606 12.4225 43.18C12.095 42.6625 11.8825 42.0225 11.4575 40.745Z" stroke="#FAB12F" stroke-width="4.5" stroke-linecap="round" stroke-linejoin="round"/>
</svg>
