<svg width="24" height="24" viewBox="0 0 24 24" fill="none" xmlns="http://www.w3.org/2000/svg">
<path d="M12 17.0273C11.8125 17.0273 11.6367 16.9983 11.4726 16.9402C11.3086 16.882 11.1562 16.7822 11.0156 16.6406L5.95312 11.5781C5.67187 11.2969 5.53687 10.9688 5.54812 10.5938C5.55937 10.2188 5.69437 9.89063 5.95312 9.60938C6.23437 9.32813 6.56859 9.18188 6.95578 9.17063C7.34296 9.15938 7.67671 9.29391 7.95703 9.57422L10.5937 12.2109V2.15625C10.5937 1.75782 10.7287 1.42407 10.9987 1.155C11.2687 0.885942 11.6025 0.750942 12 0.750005C12.3975 0.749067 12.7317 0.884067 13.0026 1.155C13.2736 1.42594 13.4081 1.75969 13.4062 2.15625V12.2109L16.043 9.57422C16.3242 9.29297 16.6584 9.15797 17.0456 9.16922C17.4328 9.18047 17.7665 9.32719 18.0469 9.60938C18.3047 9.89063 18.4397 10.2188 18.4519 10.5938C18.464 10.9688 18.329 11.2969 18.0469 11.5781L12.9844 16.6406C12.8437 16.7812 12.6914 16.8811 12.5273 16.9402C12.3633 16.9992 12.1875 17.0283 12 17.0273ZM3.5625 23.25C2.78906 23.25 2.12719 22.9748 1.57687 22.4245C1.02656 21.8742 0.750937 21.2119 0.75 20.4375V17.625C0.75 17.2266 0.885 16.8928 1.155 16.6237C1.425 16.3547 1.75875 16.2197 2.15625 16.2188C2.55375 16.2178 2.88797 16.3528 3.1589 16.6237C3.42984 16.8947 3.56437 17.2284 3.5625 17.625V20.4375H20.4375V17.625C20.4375 17.2266 20.5725 16.8928 20.8425 16.6237C21.1125 16.3547 21.4462 16.2197 21.8437 16.2188C22.2412 16.2178 22.5754 16.3528 22.8464 16.6237C23.1173 16.8947 23.2519 17.2284 23.25 17.625V20.4375C23.25 21.2109 22.9748 21.8733 22.4245 22.4245C21.8742 22.9758 21.2119 23.2509 20.4375 23.25H3.5625Z" fill="#EB8C07"/>
</svg>
