<svg width="365" height="365" viewBox="0 0 365 365" fill="none" xmlns="http://www.w3.org/2000/svg">
<path opacity="0.5" d="M168.186 364.185C116.203 364.185 66.3497 343.535 29.5926 306.778L167.874 168.497C129.578 206.457 67.7606 206.353 29.5932 168.186C-8.67823 129.915 -8.67826 67.8643 29.5931 29.5929C67.8645 -8.67846 129.915 -8.67842 168.186 29.593C206.354 67.7604 206.457 129.577 168.497 167.873L306.778 29.5924C343.536 66.3496 364.186 116.203 364.186 168.186C364.186 220.168 343.536 270.021 306.779 306.778C270.021 343.536 220.168 364.186 168.186 364.185Z" fill="url(#paint0_linear_203_17)"/>
<defs>
<linearGradient id="paint0_linear_203_17" x1="306.779" y1="29.5928" x2="29.5929" y2="306.779" gradientUnits="userSpaceOnUse">
<stop stop-color="#FAB12F"/>
<stop offset="1" stop-color="#F6D291"/>
</linearGradient>
</defs>
</svg>
