<svg width="64" height="64" viewBox="0 0 64 64" fill="none" xmlns="http://www.w3.org/2000/svg">
<rect opacity="0.15" x="1.25635" y="0.75" width="61.8724" height="61.8724" rx="30.9362" fill="#EB8C07" stroke="#EB8C07" stroke-width="1.5"/>
<path fill-rule="evenodd" clip-rule="evenodd" d="M26.5054 42.2479H21.6306V27.6235H26.5054V42.2479Z" fill="#EB8C07"/>
<path fill-rule="evenodd" clip-rule="evenodd" d="M24.0535 24.3738H24.0258C22.5711 24.3738 21.6306 23.29 21.6306 21.9356C21.6306 20.5525 22.5997 19.499 24.0821 19.499C25.5644 19.499 26.4773 20.5525 26.5054 21.9356C26.5054 23.29 25.5644 24.3738 24.0535 24.3738Z" fill="#EB8C07"/>
<path fill-rule="evenodd" clip-rule="evenodd" d="M44.3793 42.2476H39.5891V34.6032C39.5891 32.6831 38.8959 31.3729 37.1618 31.3729C35.8384 31.3729 35.0501 32.2562 34.7038 33.1093C34.5772 33.415 34.5461 33.841 34.5461 34.2681V42.2479H29.7551C29.7551 42.2479 29.8183 29.3002 29.7551 27.9594H34.5461V29.9833C35.1819 29.0104 36.3206 27.6235 38.864 27.6235C42.0163 27.6235 44.3795 29.6662 44.3795 34.055L44.3793 42.2476Z" fill="#EB8C07"/>
</svg>
