<svg width="1217" height="109" viewBox="0 0 1217 109" fill="none" xmlns="http://www.w3.org/2000/svg">
<path d="M0.531497 126V-8.58307e-06H32.9315L69.6515 75.78L106.012 -8.58307e-06H138.231V126H111.232V45.54L80.2715 108.36H58.6715L27.5315 45.54V126H0.531497ZM161.706 126L207.066 23.04H148.386V-8.58307e-06H234.786V18.9L189.606 126H161.706ZM278.111 126V-8.58307e-06H305.111V126H278.111ZM321.704 126V35.28H345.284L347.444 49.86C350.204 44.82 354.104 40.8 359.144 37.8C364.184 34.68 370.304 33.12 377.504 33.12C385.064 33.12 391.424 34.74 396.584 37.98C401.744 41.22 405.644 45.9 408.284 52.02C411.044 58.02 412.424 65.4 412.424 74.16V126H385.604V76.68C385.604 70.08 384.164 64.98 381.284 61.38C378.524 57.66 374.084 55.8 367.964 55.8C364.364 55.8 361.064 56.7 358.064 58.5C355.184 60.18 352.904 62.64 351.224 65.88C349.544 69.12 348.704 73.02 348.704 77.58V126H321.704ZM451.115 126L418.175 35.28H446.615L467.675 100.62L488.735 35.28H516.815L484.055 126H451.115ZM564.463 128.16C555.103 128.16 546.883 126.24 539.803 122.4C532.723 118.44 527.143 112.98 523.063 106.02C519.103 98.94 517.123 90.84 517.123 81.72C517.123 72.36 519.103 64.02 523.063 56.7C527.023 49.38 532.543 43.62 539.623 39.42C546.703 35.22 554.923 33.12 564.283 33.12C573.403 33.12 581.383 35.1 588.223 39.06C595.063 43.02 600.403 48.42 604.243 55.26C608.203 61.98 610.183 69.78 610.183 78.66C610.183 79.86 610.123 81.24 610.003 82.8C610.003 84.24 609.883 85.74 609.643 87.3H536.383V71.64H582.643C582.403 66.6 580.543 62.58 577.063 59.58C573.703 56.46 569.503 54.9 564.463 54.9C560.623 54.9 557.143 55.8 554.023 57.6C550.903 59.4 548.383 62.1 546.463 65.7C544.663 69.3 543.763 73.86 543.763 79.38V84.78C543.763 88.98 544.543 92.7 546.103 95.94C547.783 99.18 550.123 101.7 553.123 103.5C556.243 105.3 559.903 106.2 564.103 106.2C568.063 106.2 571.303 105.42 573.823 103.86C576.463 102.18 578.503 100.08 579.943 97.56H607.483C605.803 103.32 602.923 108.54 598.843 113.22C594.763 117.78 589.783 121.44 583.903 124.2C578.023 126.84 571.543 128.16 564.463 128.16ZM660.638 128.16C652.118 128.16 644.738 126.84 638.498 124.2C632.378 121.44 627.518 117.72 623.918 113.04C620.438 108.36 618.458 103.08 617.978 97.2H644.798C645.278 99.24 646.118 101.1 647.318 102.78C648.638 104.34 650.378 105.6 652.538 106.56C654.818 107.4 657.338 107.82 660.098 107.82C663.098 107.82 665.498 107.46 667.298 106.74C669.218 105.9 670.658 104.82 671.618 103.5C672.578 102.18 673.058 100.8 673.058 99.36C673.058 97.08 672.338 95.34 670.898 94.14C669.578 92.94 667.598 91.98 664.958 91.26C662.318 90.42 659.138 89.64 655.418 88.92C651.098 87.96 646.778 86.88 642.458 85.68C638.258 84.36 634.478 82.74 631.118 80.82C627.878 78.9 625.238 76.44 623.198 73.44C621.278 70.32 620.318 66.54 620.318 62.1C620.318 56.7 621.818 51.84 624.818 47.52C627.818 43.08 632.138 39.6 637.778 37.08C643.418 34.44 650.258 33.12 658.298 33.12C669.698 33.12 678.638 35.64 685.118 40.68C691.598 45.72 695.438 52.5 696.638 61.02H671.438C670.718 58.62 669.218 56.82 666.938 55.62C664.658 54.3 661.778 53.64 658.298 53.64C654.338 53.64 651.338 54.3 649.298 55.62C647.258 56.94 646.238 58.68 646.238 60.84C646.238 62.28 646.898 63.6 648.218 64.8C649.658 65.88 651.698 66.84 654.338 67.68C656.978 68.52 660.218 69.36 664.058 70.2C671.378 71.76 677.678 73.44 682.958 75.24C688.358 77.04 692.558 79.68 695.558 83.16C698.558 86.52 699.998 91.44 699.878 97.92C699.998 103.8 698.438 109.02 695.198 113.58C692.078 118.14 687.578 121.74 681.698 124.38C675.818 126.9 668.798 128.16 660.638 128.16ZM752.864 126C746.264 126 740.444 124.98 735.404 122.94C730.364 120.78 726.464 117.3 723.704 112.5C720.944 107.7 719.564 101.16 719.564 92.88V57.78H704.084V35.28H719.564L722.444 9.72H746.564V35.28H769.784V57.78H746.564V93.24C746.564 96.84 747.344 99.42 748.904 100.98C750.584 102.42 753.404 103.14 757.364 103.14H769.784V126H752.864ZM783.34 126V35.28H806.92L809.26 46.98C812.14 42.78 815.92 39.42 820.6 36.9C825.4 34.38 830.92 33.12 837.16 33.12C841.6 33.12 845.62 33.72 849.22 34.92C852.82 36 856 37.68 858.76 39.96C861.52 42.12 863.8 44.88 865.6 48.24C869.08 43.56 873.52 39.9 878.92 37.26C884.32 34.5 890.2 33.12 896.56 33.12C904.72 33.12 911.44 34.74 916.72 37.98C922.12 41.22 926.14 45.9 928.78 52.02C931.42 58.14 932.74 65.58 932.74 74.34V126H905.92V76.68C905.92 70.08 904.6 64.98 901.96 61.38C899.44 57.66 895.36 55.8 889.72 55.8C886.12 55.8 882.94 56.7 880.18 58.5C877.42 60.3 875.26 62.82 873.7 66.06C872.26 69.3 871.54 73.2 871.54 77.76V126H844.72V76.68C844.72 70.08 843.4 64.98 840.76 61.38C838.12 57.66 833.86 55.8 827.98 55.8C824.62 55.8 821.56 56.7 818.8 58.5C816.16 60.3 814.06 62.82 812.5 66.06C811.06 69.3 810.34 73.2 810.34 77.76V126H783.34ZM992.694 128.16C983.334 128.16 975.114 126.24 968.034 122.4C960.954 118.44 955.374 112.98 951.294 106.02C947.334 98.94 945.354 90.84 945.354 81.72C945.354 72.36 947.334 64.02 951.294 56.7C955.254 49.38 960.774 43.62 967.854 39.42C974.934 35.22 983.154 33.12 992.514 33.12C1001.63 33.12 1009.61 35.1 1016.45 39.06C1023.29 43.02 1028.63 48.42 1032.47 55.26C1036.43 61.98 1038.41 69.78 1038.41 78.66C1038.41 79.86 1038.35 81.24 1038.23 82.8C1038.23 84.24 1038.11 85.74 1037.87 87.3H964.614V71.64H1010.87C1010.63 66.6 1008.77 62.58 1005.29 59.58C1001.93 56.46 997.734 54.9 992.694 54.9C988.854 54.9 985.374 55.8 982.254 57.6C979.134 59.4 976.614 62.1 974.694 65.7C972.894 69.3 971.994 73.86 971.994 79.38V84.78C971.994 88.98 972.774 92.7 974.334 95.94C976.014 99.18 978.354 101.7 981.354 103.5C984.474 105.3 988.134 106.2 992.334 106.2C996.294 106.2 999.534 105.42 1002.05 103.86C1004.69 102.18 1006.73 100.08 1008.17 97.56H1035.71C1034.03 103.32 1031.15 108.54 1027.07 113.22C1022.99 117.78 1018.01 121.44 1012.13 124.2C1006.25 126.84 999.774 128.16 992.694 128.16ZM1051.07 126V35.28H1074.65L1076.81 49.86C1079.57 44.82 1083.47 40.8 1088.51 37.8C1093.55 34.68 1099.67 33.12 1106.87 33.12C1114.43 33.12 1120.79 34.74 1125.95 37.98C1131.11 41.22 1135.01 45.9 1137.65 52.02C1140.41 58.02 1141.79 65.4 1141.79 74.16V126H1114.97V76.68C1114.97 70.08 1113.53 64.98 1110.65 61.38C1107.89 57.66 1103.45 55.8 1097.33 55.8C1093.73 55.8 1090.43 56.7 1087.43 58.5C1084.55 60.18 1082.27 62.64 1080.59 65.88C1078.91 69.12 1078.07 73.02 1078.07 77.58V126H1051.07ZM1199.55 126C1192.95 126 1187.13 124.98 1182.09 122.94C1177.05 120.78 1173.15 117.3 1170.39 112.5C1167.63 107.7 1166.25 101.16 1166.25 92.88V57.78H1150.77V35.28H1166.25L1169.13 9.72H1193.25V35.28H1216.47V57.78H1193.25V93.24C1193.25 96.84 1194.03 99.42 1195.59 100.98C1197.27 102.42 1200.09 103.14 1204.05 103.14H1216.47V126H1199.55Z" fill="url(#paint0_linear_237_382)"/>
<defs>
<linearGradient id="paint0_linear_237_382" x1="635.498" y1="205" x2="630.094" y2="-52.0041" gradientUnits="userSpaceOnUse">
<stop stop-color="white" stop-opacity="0"/>
<stop offset="1" stop-color="#DEDEDE"/>
</linearGradient>
</defs>
</svg>
