<svg width="376" height="376" viewBox="0 0 376 376" fill="none" xmlns="http://www.w3.org/2000/svg">
<rect width="376" height="376" rx="20" fill="url(#paint0_linear_52_1169)"/>
<path d="M264.804 111.196L287.64 115.76C288.866 116.005 289.874 116.905 290.228 118.117C290.407 118.706 290.423 119.333 290.274 119.93C290.126 120.528 289.818 121.074 289.384 121.51L270.676 140.231C268.435 142.46 265.404 143.713 262.243 143.719H246.724L207.756 182.7C208.5 185.507 208.636 188.44 208.157 191.304C207.678 194.168 206.594 196.897 204.978 199.309C203.361 201.722 201.249 203.762 198.782 205.294C196.316 206.826 193.551 207.815 190.672 208.194C187.793 208.574 184.866 208.336 182.086 207.495C179.307 206.655 176.738 205.232 174.552 203.322C172.365 201.411 170.611 199.056 169.406 196.414C168.2 193.772 167.572 190.904 167.563 188C167.562 184.864 168.283 181.77 169.67 178.957C171.057 176.144 173.073 173.688 175.561 171.779C178.049 169.871 180.944 168.56 184.02 167.949C187.096 167.339 190.271 167.444 193.3 168.257L232.281 129.263V113.771C232.281 110.61 233.535 107.572 235.769 105.337L254.49 86.6163C254.926 86.182 255.472 85.8742 256.07 85.7254C256.667 85.5767 257.294 85.5926 257.883 85.7715C259.095 86.1258 259.994 87.134 260.24 88.3603L264.804 111.196Z" fill="white"/>
<path d="M106.25 188C106.264 199.69 108.785 211.241 113.642 221.873C118.5 232.506 125.582 241.973 134.409 249.636C143.237 257.299 153.605 262.98 164.815 266.296C176.025 269.611 187.815 270.484 199.391 268.855C210.966 267.226 222.058 263.133 231.918 256.854C241.777 250.574 250.175 242.252 256.546 232.451C262.916 222.649 267.11 211.595 268.845 200.035C270.579 188.475 269.815 176.677 266.603 165.437C266.152 164.124 265.973 162.733 266.076 161.348C266.18 159.964 266.565 158.615 267.206 157.384C267.848 156.152 268.734 155.065 269.809 154.187C270.885 153.309 272.128 152.659 273.463 152.276C274.797 151.894 276.196 151.787 277.573 151.963C278.951 152.138 280.278 152.592 281.474 153.297C282.67 154.002 283.711 154.943 284.532 156.062C285.353 157.182 285.937 158.457 286.25 159.81C292.47 181.576 291.288 204.792 282.891 225.814C274.493 246.836 259.354 264.476 239.849 275.966C220.344 287.456 197.576 292.145 175.118 289.299C152.66 286.453 131.782 276.232 115.76 260.24C99.7555 244.222 89.5236 223.342 86.6709 200.879C83.8182 178.415 88.5063 155.641 99.9991 136.131C111.492 116.62 129.139 101.479 150.169 93.0848C171.199 84.6901 194.421 83.5172 216.19 89.7502C218.782 90.5079 220.969 92.2609 222.272 94.6259C223.576 96.991 223.89 99.7759 223.147 102.372C222.403 104.968 220.662 107.164 218.304 108.481C215.946 109.797 213.163 110.127 210.563 109.397C198.39 105.902 185.571 105.283 173.118 107.588C160.665 109.894 148.917 115.061 138.803 122.683C128.688 130.305 120.482 140.172 114.833 151.507C109.184 162.842 106.246 175.335 106.25 188Z" fill="white"/>
<path d="M147.125 188C147.126 195.447 149.16 202.753 153.008 209.129C156.856 215.505 162.372 220.71 168.96 224.182C175.549 227.653 182.96 229.26 190.395 228.829C197.83 228.398 205.006 225.945 211.149 221.735C217.291 217.515 222.162 211.696 225.236 204.907C228.31 198.118 229.47 190.618 228.589 183.218C228.351 181.422 228.596 179.595 229.298 177.925C230.001 176.256 231.136 174.803 232.586 173.718C234.036 172.633 235.75 171.953 237.55 171.75C239.35 171.547 241.171 171.828 242.827 172.563C244.482 173.288 245.916 174.44 246.981 175.9C248.046 177.36 248.705 179.076 248.89 180.874C250.371 193.519 247.878 206.312 241.758 217.476C235.638 228.641 226.194 237.623 214.737 243.176C203.28 248.729 190.379 250.578 177.824 248.467C165.268 246.355 153.682 240.387 144.672 231.391C135.663 222.395 129.677 210.818 127.546 198.265C125.415 185.713 127.245 172.809 132.781 161.344C138.317 149.879 147.284 140.421 158.439 134.284C169.594 128.147 182.383 125.635 195.031 127.096C196.385 127.222 197.7 127.617 198.9 128.257C200.1 128.898 201.16 129.772 202.017 130.827C202.875 131.883 203.513 133.099 203.895 134.404C204.277 135.71 204.394 137.078 204.239 138.43C204.085 139.781 203.663 141.088 202.997 142.274C202.331 143.46 201.435 144.501 200.362 145.336C199.289 146.171 198.059 146.784 196.746 147.138C195.433 147.492 194.062 147.58 192.714 147.397C186.987 146.732 181.184 147.287 175.686 149.024C170.189 150.76 165.12 153.641 160.815 157.475C156.509 161.31 153.064 166.012 150.704 171.273C148.345 176.534 147.125 182.234 147.125 188Z" fill="white"/>
<defs>
<linearGradient id="paint0_linear_52_1169" x1="376" y1="4.88797" x2="7.144" y2="369.984" gradientUnits="userSpaceOnUse">
<stop stop-color="#FAD02A"/>
<stop offset="1" stop-color="#FAB12F"/>
</linearGradient>
</defs>
</svg>
