<svg width="278" height="56" viewBox="0 0 278 56" fill="none" xmlns="http://www.w3.org/2000/svg">
<rect width="278" height="56" rx="20" fill="#FEF3E2"/>
<path d="M41.7099 27L37.7099 20C37.5363 19.6992 37.2873 19.4488 36.9874 19.2734C36.6876 19.0981 36.3473 19.0038 35.9999 19H27.9999C27.6543 19.0056 27.316 19.1006 27.0181 19.2759C26.7202 19.4511 26.4727 19.7006 26.2999 20L22.2999 27C22.1244 27.304 22.032 27.6489 22.032 28C22.032 28.3511 22.1244 28.696 22.2999 29L26.2999 36C26.4727 36.2994 26.7202 36.5489 27.0181 36.7241C27.316 36.8994 27.6543 36.9944 27.9999 37H35.9999C36.3524 37.0014 36.6989 36.9096 37.0044 36.734C37.31 36.5584 37.5637 36.3052 37.7399 36L41.7399 29C41.9109 28.6933 41.9982 28.3471 41.9929 27.996C41.9876 27.6449 41.89 27.3014 41.7099 27ZM31.9999 30C31.6044 30 31.2177 29.8827 30.8888 29.6629C30.5599 29.4432 30.3035 29.1308 30.1522 28.7654C30.0008 28.3999 29.9612 27.9978 30.0384 27.6098C30.1155 27.2219 30.306 26.8655 30.5857 26.5858C30.8654 26.3061 31.2218 26.1156 31.6098 26.0384C31.9977 25.9613 32.3998 26.0009 32.7653 26.1522C33.1307 26.3036 33.4431 26.56 33.6629 26.8889C33.8826 27.2178 33.9999 27.6044 33.9999 28C33.9999 28.5304 33.7892 29.0391 33.4141 29.4142C33.0391 29.7893 32.5304 30 31.9999 30Z" fill="#FAB12F"/>
<path d="M67.2 36.288C65.984 36.288 64.912 36.072 63.984 35.64C63.056 35.192 62.336 34.568 61.824 33.768C61.312 32.968 61.056 32.032 61.056 30.96H63.576C63.576 31.568 63.72 32.128 64.008 32.64C64.296 33.136 64.704 33.536 65.232 33.84C65.776 34.128 66.432 34.272 67.2 34.272C67.888 34.272 68.472 34.16 68.952 33.936C69.432 33.712 69.8 33.408 70.056 33.024C70.328 32.624 70.464 32.168 70.464 31.656C70.464 31.048 70.32 30.552 70.032 30.168C69.76 29.784 69.392 29.472 68.928 29.232C68.464 28.992 67.928 28.776 67.32 28.584C66.728 28.392 66.104 28.184 65.448 27.96C64.152 27.512 63.176 26.952 62.52 26.28C61.88 25.592 61.56 24.696 61.56 23.592C61.56 22.648 61.776 21.832 62.208 21.144C62.656 20.44 63.288 19.896 64.104 19.512C64.92 19.112 65.88 18.912 66.984 18.912C68.072 18.912 69.016 19.112 69.816 19.512C70.632 19.912 71.272 20.464 71.736 21.168C72.2 21.872 72.44 22.696 72.456 23.64H69.912C69.912 23.208 69.8 22.784 69.576 22.368C69.352 21.952 69.016 21.616 68.568 21.36C68.12 21.088 67.568 20.952 66.912 20.952C66.368 20.936 65.88 21.024 65.448 21.216C65.016 21.408 64.672 21.688 64.416 22.056C64.176 22.424 64.056 22.864 64.056 23.376C64.056 23.888 64.168 24.304 64.392 24.624C64.616 24.928 64.936 25.192 65.352 25.416C65.768 25.64 66.248 25.848 66.792 26.04C67.352 26.216 67.968 26.416 68.64 26.64C69.456 26.912 70.192 27.248 70.848 27.648C71.504 28.032 72.016 28.536 72.384 29.16C72.768 29.768 72.96 30.552 72.96 31.512C72.96 32.344 72.744 33.12 72.312 33.84C71.88 34.56 71.24 35.152 70.392 35.616C69.544 36.064 68.48 36.288 67.2 36.288ZM81.1671 36.288C79.9991 36.288 78.9671 36.032 78.0711 35.52C77.1751 34.992 76.4711 34.264 75.9591 33.336C75.4471 32.408 75.1911 31.32 75.1911 30.072C75.1911 28.824 75.4391 27.736 75.9351 26.808C76.4471 25.864 77.1511 25.128 78.0471 24.6C78.9591 24.072 80.0151 23.808 81.2151 23.808C82.3831 23.808 83.3911 24.072 84.2391 24.6C85.1031 25.112 85.7671 25.792 86.2311 26.64C86.6951 27.488 86.9271 28.432 86.9271 29.472C86.9271 29.632 86.9271 29.808 86.9271 30C86.9271 30.192 86.9191 30.392 86.9031 30.6H76.9671V28.92H84.5271C84.4791 27.96 84.1431 27.2 83.5191 26.64C82.8951 26.08 82.1111 25.8 81.1671 25.8C80.5271 25.8 79.9271 25.944 79.3671 26.232C78.8231 26.52 78.3831 26.944 78.0471 27.504C77.7111 28.048 77.5431 28.744 77.5431 29.592V30.264C77.5431 31.144 77.7111 31.88 78.0471 32.472C78.3831 33.064 78.8231 33.52 79.3671 33.84C79.9271 34.144 80.5271 34.296 81.1671 34.296C81.9191 34.296 82.5511 34.12 83.0631 33.768C83.5751 33.416 83.9511 32.952 84.1911 32.376H86.5911C86.3831 33.128 86.0311 33.8 85.5351 34.392C85.0391 34.968 84.4231 35.432 83.6871 35.784C82.9511 36.12 82.1111 36.288 81.1671 36.288ZM89.5695 36V24.096H91.7295L91.9215 26.376C92.1935 25.848 92.5375 25.392 92.9535 25.008C93.3695 24.624 93.8575 24.328 94.4175 24.12C94.9935 23.912 95.6415 23.808 96.3615 23.808V26.328H95.6895C95.1775 26.328 94.6895 26.392 94.2255 26.52C93.7775 26.648 93.3775 26.856 93.0255 27.144C92.6895 27.432 92.4255 27.832 92.2335 28.344C92.0575 28.84 91.9695 29.464 91.9695 30.216V36H89.5695ZM102.002 36L97.4655 23.904H99.9855L103.418 33.696L106.874 23.904H109.346L104.834 36H102.002ZM111.534 36V23.904H113.934V36H111.534ZM112.758 21.624C112.294 21.624 111.91 21.48 111.606 21.192C111.318 20.904 111.174 20.536 111.174 20.088C111.174 19.656 111.318 19.304 111.606 19.032C111.91 18.744 112.294 18.6 112.758 18.6C113.206 18.6 113.582 18.744 113.886 19.032C114.19 19.304 114.342 19.656 114.342 20.088C114.342 20.536 114.19 20.904 113.886 21.192C113.582 21.48 113.206 21.624 112.758 21.624ZM122.935 36.288C121.767 36.288 120.727 36.024 119.815 35.496C118.903 34.952 118.183 34.208 117.655 33.264C117.143 32.32 116.887 31.224 116.887 29.976C116.887 28.712 117.143 27.608 117.655 26.664C118.183 25.704 118.903 24.96 119.815 24.432C120.727 23.888 121.767 23.616 122.935 23.616C124.407 23.616 125.639 24 126.631 24.768C127.623 25.536 128.255 26.576 128.527 27.888H126.031C125.871 27.184 125.503 26.64 124.927 26.256C124.367 25.872 123.695 25.68 122.911 25.68C122.271 25.68 121.679 25.848 121.135 26.184C120.591 26.504 120.151 26.984 119.815 27.624C119.495 28.248 119.335 29.024 119.335 29.952C119.335 30.64 119.431 31.256 119.623 31.8C119.815 32.328 120.071 32.776 120.391 33.144C120.727 33.512 121.111 33.792 121.543 33.984C121.975 34.16 122.431 34.248 122.911 34.248C123.439 34.248 123.911 34.168 124.327 34.008C124.759 33.832 125.119 33.576 125.407 33.24C125.711 32.904 125.919 32.504 126.031 32.04H128.527C128.255 33.32 127.623 34.352 126.631 35.136C125.639 35.904 124.407 36.288 122.935 36.288ZM136.784 36.288C135.616 36.288 134.584 36.032 133.688 35.52C132.792 34.992 132.088 34.264 131.576 33.336C131.064 32.408 130.808 31.32 130.808 30.072C130.808 28.824 131.056 27.736 131.552 26.808C132.064 25.864 132.768 25.128 133.664 24.6C134.576 24.072 135.632 23.808 136.832 23.808C138 23.808 139.008 24.072 139.856 24.6C140.72 25.112 141.384 25.792 141.848 26.64C142.312 27.488 142.544 28.432 142.544 29.472C142.544 29.632 142.544 29.808 142.544 30C142.544 30.192 142.536 30.392 142.52 30.6H132.584V28.92H140.144C140.096 27.96 139.76 27.2 139.136 26.64C138.512 26.08 137.728 25.8 136.784 25.8C136.144 25.8 135.544 25.944 134.984 26.232C134.44 26.52 134 26.944 133.664 27.504C133.328 28.048 133.16 28.744 133.16 29.592V30.264C133.16 31.144 133.328 31.88 133.664 32.472C134 33.064 134.44 33.52 134.984 33.84C135.544 34.144 136.144 34.296 136.784 34.296C137.536 34.296 138.168 34.12 138.68 33.768C139.192 33.416 139.568 32.952 139.808 32.376H142.208C142 33.128 141.648 33.8 141.152 34.392C140.656 34.968 140.04 35.432 139.304 35.784C138.568 36.12 137.728 36.288 136.784 36.288ZM149.867 36.288C148.891 36.288 148.011 36.12 147.227 35.784C146.459 35.448 145.843 34.984 145.379 34.392C144.915 33.784 144.635 33.072 144.539 32.256H146.963C147.059 32.64 147.227 32.992 147.467 33.312C147.707 33.616 148.027 33.864 148.427 34.056C148.843 34.248 149.323 34.344 149.867 34.344C150.395 34.344 150.827 34.272 151.163 34.128C151.499 33.968 151.747 33.76 151.907 33.504C152.067 33.248 152.147 32.976 152.147 32.688C152.147 32.256 152.035 31.928 151.811 31.704C151.587 31.48 151.259 31.304 150.827 31.176C150.411 31.048 149.907 30.92 149.315 30.792C148.835 30.68 148.339 30.544 147.827 30.384C147.315 30.224 146.851 30.024 146.435 29.784C146.019 29.528 145.683 29.216 145.427 28.848C145.171 28.464 145.043 27.992 145.043 27.432C145.043 26.744 145.219 26.128 145.571 25.584C145.939 25.024 146.459 24.592 147.131 24.288C147.803 23.968 148.603 23.808 149.531 23.808C150.843 23.808 151.907 24.128 152.723 24.768C153.555 25.392 154.035 26.296 154.163 27.48H151.859C151.779 26.936 151.539 26.512 151.139 26.208C150.739 25.904 150.195 25.752 149.507 25.752C148.835 25.752 148.315 25.888 147.947 26.16C147.595 26.432 147.419 26.792 147.419 27.24C147.419 27.512 147.523 27.76 147.731 27.984C147.955 28.192 148.267 28.368 148.667 28.512C149.083 28.656 149.571 28.792 150.131 28.92C150.915 29.08 151.635 29.28 152.291 29.52C152.963 29.76 153.507 30.104 153.923 30.552C154.355 31 154.571 31.656 154.571 32.52C154.587 33.256 154.403 33.912 154.019 34.488C153.635 35.048 153.091 35.488 152.387 35.808C151.683 36.128 150.843 36.288 149.867 36.288ZM165.891 36L162.387 24.096H164.787L167.427 34.272L166.827 34.248L169.779 24.096H172.467L175.443 34.248L174.843 34.272L177.483 24.096H179.883L176.403 36H173.931L170.811 25.416H171.459L168.363 36H165.891ZM187.128 36.288C185.96 36.288 184.928 36.032 184.032 35.52C183.136 34.992 182.432 34.264 181.92 33.336C181.408 32.408 181.152 31.32 181.152 30.072C181.152 28.824 181.4 27.736 181.896 26.808C182.408 25.864 183.112 25.128 184.008 24.6C184.92 24.072 185.976 23.808 187.176 23.808C188.344 23.808 189.352 24.072 190.2 24.6C191.064 25.112 191.728 25.792 192.192 26.64C192.656 27.488 192.888 28.432 192.888 29.472C192.888 29.632 192.888 29.808 192.888 30C192.888 30.192 192.88 30.392 192.864 30.6H182.928V28.92H190.488C190.44 27.96 190.104 27.2 189.48 26.64C188.856 26.08 188.072 25.8 187.128 25.8C186.488 25.8 185.888 25.944 185.328 26.232C184.784 26.52 184.344 26.944 184.008 27.504C183.672 28.048 183.504 28.744 183.504 29.592V30.264C183.504 31.144 183.672 31.88 184.008 32.472C184.344 33.064 184.784 33.52 185.328 33.84C185.888 34.144 186.488 34.296 187.128 34.296C187.88 34.296 188.512 34.12 189.024 33.768C189.536 33.416 189.912 32.952 190.152 32.376H192.552C192.344 33.128 191.992 33.8 191.496 34.392C191 34.968 190.384 35.432 189.648 35.784C188.912 36.12 188.072 36.288 187.128 36.288ZM209.448 36.288C207.8 36.288 206.352 35.928 205.104 35.208C203.856 34.472 202.88 33.456 202.176 32.16C201.472 30.848 201.12 29.328 201.12 27.6C201.12 25.888 201.472 24.384 202.176 23.088C202.88 21.776 203.856 20.752 205.104 20.016C206.352 19.28 207.8 18.912 209.448 18.912C211.112 18.912 212.568 19.28 213.816 20.016C215.08 20.752 216.056 21.776 216.744 23.088C217.432 24.384 217.776 25.888 217.776 27.6C217.776 29.328 217.432 30.848 216.744 32.16C216.056 33.456 215.08 34.472 213.816 35.208C212.568 35.928 211.112 36.288 209.448 36.288ZM209.448 34.152C210.632 34.152 211.664 33.888 212.544 33.36C213.424 32.832 214.104 32.08 214.584 31.104C215.08 30.128 215.328 28.96 215.328 27.6C215.328 26.24 215.08 25.072 214.584 24.096C214.104 23.12 213.424 22.376 212.544 21.864C211.664 21.336 210.632 21.072 209.448 21.072C208.28 21.072 207.256 21.336 206.376 21.864C205.496 22.376 204.808 23.12 204.312 24.096C203.816 25.072 203.568 26.24 203.568 27.6C203.568 28.96 203.816 30.128 204.312 31.104C204.808 32.08 205.496 32.832 206.376 33.36C207.256 33.888 208.28 34.152 209.448 34.152ZM221.138 36V22.272C221.138 21.44 221.274 20.76 221.546 20.232C221.834 19.704 222.25 19.32 222.794 19.08C223.338 18.84 223.994 18.72 224.762 18.72H226.01V20.76H225.146C224.57 20.76 224.154 20.88 223.898 21.12C223.658 21.344 223.538 21.744 223.538 22.32V36H221.138ZM219.386 26.112V24.096H226.346V26.112H219.386ZM229.365 36V22.272C229.365 21.44 229.501 20.76 229.773 20.232C230.061 19.704 230.477 19.32 231.021 19.08C231.565 18.84 232.221 18.72 232.989 18.72H234.237V20.76H233.373C232.797 20.76 232.381 20.88 232.125 21.12C231.885 21.344 231.765 21.744 231.765 22.32V36H229.365ZM227.613 26.112V24.096H234.573V26.112H227.613ZM242.019 36.288C240.851 36.288 239.819 36.032 238.923 35.52C238.027 34.992 237.323 34.264 236.811 33.336C236.299 32.408 236.043 31.32 236.043 30.072C236.043 28.824 236.291 27.736 236.787 26.808C237.299 25.864 238.003 25.128 238.899 24.6C239.811 24.072 240.867 23.808 242.067 23.808C243.235 23.808 244.243 24.072 245.091 24.6C245.955 25.112 246.619 25.792 247.083 26.64C247.547 27.488 247.779 28.432 247.779 29.472C247.779 29.632 247.779 29.808 247.779 30C247.779 30.192 247.771 30.392 247.755 30.6H237.819V28.92H245.379C245.331 27.96 244.995 27.2 244.371 26.64C243.747 26.08 242.963 25.8 242.019 25.8C241.379 25.8 240.779 25.944 240.219 26.232C239.675 26.52 239.235 26.944 238.899 27.504C238.563 28.048 238.395 28.744 238.395 29.592V30.264C238.395 31.144 238.563 31.88 238.899 32.472C239.235 33.064 239.675 33.52 240.219 33.84C240.779 34.144 241.379 34.296 242.019 34.296C242.771 34.296 243.403 34.12 243.915 33.768C244.427 33.416 244.803 32.952 245.043 32.376H247.443C247.235 33.128 246.883 33.8 246.387 34.392C245.891 34.968 245.275 35.432 244.539 35.784C243.803 36.12 242.963 36.288 242.019 36.288ZM250.421 36V24.096H252.581L252.773 26.376C253.045 25.848 253.389 25.392 253.805 25.008C254.221 24.624 254.709 24.328 255.269 24.12C255.845 23.912 256.493 23.808 257.213 23.808V26.328H256.541C256.029 26.328 255.541 26.392 255.077 26.52C254.629 26.648 254.229 26.856 253.877 27.144C253.541 27.432 253.277 27.832 253.085 28.344C252.909 28.84 252.821 29.464 252.821 30.216V36H250.421Z" fill="#EB8C07"/>
</svg>
