<svg width="315" height="56" viewBox="0 0 315 56" fill="none" xmlns="http://www.w3.org/2000/svg">
<rect width="315" height="56" rx="20" fill="#FEF3E2"/>
<path d="M41.7099 27L37.7099 20C37.5363 19.6992 37.2873 19.4488 36.9874 19.2734C36.6876 19.0981 36.3473 19.0038 35.9999 19H27.9999C27.6543 19.0056 27.316 19.1006 27.0181 19.2759C26.7202 19.4511 26.4727 19.7006 26.2999 20L22.2999 27C22.1244 27.304 22.032 27.6489 22.032 28C22.032 28.3511 22.1244 28.696 22.2999 29L26.2999 36C26.4727 36.2994 26.7202 36.5489 27.0181 36.7241C27.316 36.8994 27.6543 36.9944 27.9999 37H35.9999C36.3524 37.0014 36.6989 36.9096 37.0044 36.734C37.31 36.5584 37.5637 36.3052 37.7399 36L41.7399 29C41.9109 28.6933 41.9982 28.3471 41.9929 27.996C41.9876 27.6449 41.89 27.3014 41.7099 27ZM31.9999 30C31.6044 30 31.2177 29.8827 30.8888 29.6629C30.5599 29.4432 30.3035 29.1308 30.1522 28.7654C30.0008 28.3999 29.9612 27.9978 30.0384 27.6098C30.1155 27.2219 30.306 26.8655 30.5857 26.5858C30.8654 26.3061 31.2218 26.1156 31.6098 26.0384C31.9977 25.9613 32.3998 26.0009 32.7653 26.1522C33.1307 26.3036 33.4431 26.56 33.6629 26.8889C33.8826 27.2178 33.9999 27.6044 33.9999 28C33.9999 28.5304 33.7892 29.0391 33.4141 29.4142C33.0391 29.7893 32.5304 30 31.9999 30Z" fill="#FAB12F"/>
<path d="M69.432 36.288C67.784 36.288 66.336 35.928 65.088 35.208C63.84 34.472 62.864 33.456 62.16 32.16C61.456 30.848 61.104 29.328 61.104 27.6C61.104 25.888 61.456 24.384 62.16 23.088C62.864 21.776 63.84 20.752 65.088 20.016C66.336 19.28 67.784 18.912 69.432 18.912C71.096 18.912 72.552 19.28 73.8 20.016C75.064 20.752 76.04 21.776 76.728 23.088C77.416 24.384 77.76 25.888 77.76 27.6C77.76 29.328 77.416 30.848 76.728 32.16C76.04 33.456 75.064 34.472 73.8 35.208C72.552 35.928 71.096 36.288 69.432 36.288ZM69.432 34.152C70.616 34.152 71.648 33.888 72.528 33.36C73.408 32.832 74.088 32.08 74.568 31.104C75.064 30.128 75.312 28.96 75.312 27.6C75.312 26.24 75.064 25.072 74.568 24.096C74.088 23.12 73.408 22.376 72.528 21.864C71.648 21.336 70.616 21.072 69.432 21.072C68.264 21.072 67.24 21.336 66.36 21.864C65.48 22.376 64.792 23.12 64.296 24.096C63.8 25.072 63.552 26.24 63.552 27.6C63.552 28.96 63.8 30.128 64.296 31.104C64.792 32.08 65.48 32.832 66.36 33.36C67.24 33.888 68.264 34.152 69.432 34.152ZM84.8906 36.288C83.9466 36.288 83.1226 36.096 82.4186 35.712C81.7306 35.312 81.2026 34.72 80.8346 33.936C80.4666 33.152 80.2826 32.16 80.2826 30.96V24.096H82.6586V30.72C82.6586 31.888 82.8986 32.768 83.3786 33.36C83.8746 33.952 84.5946 34.248 85.5386 34.248C86.1786 34.248 86.7546 34.096 87.2666 33.792C87.7786 33.472 88.1786 33.016 88.4666 32.424C88.7546 31.832 88.8986 31.112 88.8986 30.264V24.096H91.2986V36H89.1626L88.9946 33.912C88.6106 34.648 88.0586 35.232 87.3386 35.664C86.6346 36.08 85.8186 36.288 84.8906 36.288ZM94.5617 36V24.096H96.7217L96.9137 26.376C97.1857 25.848 97.5297 25.392 97.9457 25.008C98.3617 24.624 98.8497 24.328 99.4097 24.12C99.9857 23.912 100.634 23.808 101.354 23.808V26.328H100.682C100.17 26.328 99.6817 26.392 99.2177 26.52C98.7697 26.648 98.3697 26.856 98.0177 27.144C97.6817 27.432 97.4177 27.832 97.2257 28.344C97.0497 28.84 96.9617 29.464 96.9617 30.216V36H94.5617ZM113.711 36V21.168H108.719V19.2H121.079V21.168H116.111V36H113.711ZM122.101 36V24.096H124.261L124.453 26.376C124.725 25.848 125.069 25.392 125.485 25.008C125.901 24.624 126.389 24.328 126.949 24.12C127.525 23.912 128.173 23.808 128.893 23.808V26.328H128.221C127.709 26.328 127.221 26.392 126.757 26.52C126.309 26.648 125.909 26.856 125.557 27.144C125.221 27.432 124.957 27.832 124.765 28.344C124.589 28.84 124.501 29.464 124.501 30.216V36H122.101ZM135.469 36.288C134.525 36.288 133.701 36.096 132.997 35.712C132.309 35.312 131.781 34.72 131.413 33.936C131.045 33.152 130.861 32.16 130.861 30.96V24.096H133.237V30.72C133.237 31.888 133.477 32.768 133.957 33.36C134.453 33.952 135.173 34.248 136.117 34.248C136.757 34.248 137.333 34.096 137.845 33.792C138.357 33.472 138.757 33.016 139.045 32.424C139.333 31.832 139.477 31.112 139.477 30.264V24.096H141.877V36H139.741L139.573 33.912C139.189 34.648 138.637 35.232 137.917 35.664C137.213 36.08 136.397 36.288 135.469 36.288ZM149.82 36.288C148.844 36.288 147.964 36.12 147.18 35.784C146.412 35.448 145.796 34.984 145.332 34.392C144.868 33.784 144.588 33.072 144.492 32.256H146.916C147.012 32.64 147.18 32.992 147.42 33.312C147.66 33.616 147.98 33.864 148.38 34.056C148.796 34.248 149.276 34.344 149.82 34.344C150.348 34.344 150.78 34.272 151.116 34.128C151.452 33.968 151.7 33.76 151.86 33.504C152.02 33.248 152.1 32.976 152.1 32.688C152.1 32.256 151.988 31.928 151.764 31.704C151.54 31.48 151.212 31.304 150.78 31.176C150.364 31.048 149.86 30.92 149.268 30.792C148.788 30.68 148.292 30.544 147.78 30.384C147.268 30.224 146.804 30.024 146.388 29.784C145.972 29.528 145.636 29.216 145.38 28.848C145.124 28.464 144.996 27.992 144.996 27.432C144.996 26.744 145.172 26.128 145.524 25.584C145.892 25.024 146.412 24.592 147.084 24.288C147.756 23.968 148.556 23.808 149.484 23.808C150.796 23.808 151.86 24.128 152.676 24.768C153.508 25.392 153.988 26.296 154.116 27.48H151.812C151.732 26.936 151.492 26.512 151.092 26.208C150.692 25.904 150.148 25.752 149.46 25.752C148.788 25.752 148.268 25.888 147.9 26.16C147.548 26.432 147.372 26.792 147.372 27.24C147.372 27.512 147.476 27.76 147.684 27.984C147.908 28.192 148.22 28.368 148.62 28.512C149.036 28.656 149.524 28.792 150.084 28.92C150.868 29.08 151.588 29.28 152.244 29.52C152.916 29.76 153.46 30.104 153.876 30.552C154.308 31 154.524 31.656 154.524 32.52C154.54 33.256 154.356 33.912 153.972 34.488C153.588 35.048 153.044 35.488 152.34 35.808C151.636 36.128 150.796 36.288 149.82 36.288ZM161.779 36C161.011 36 160.347 35.88 159.787 35.64C159.227 35.4 158.795 35 158.491 34.44C158.187 33.88 158.035 33.12 158.035 32.16V26.112H155.995V24.096H158.035L158.347 21.12H160.435V24.096H163.843V26.112H160.435V32.184C160.435 32.872 160.579 33.344 160.867 33.6C161.155 33.84 161.651 33.96 162.355 33.96H163.699V36H161.779ZM171.612 36.288C170.444 36.288 169.412 36.032 168.516 35.52C167.62 34.992 166.916 34.264 166.404 33.336C165.892 32.408 165.636 31.32 165.636 30.072C165.636 28.824 165.884 27.736 166.38 26.808C166.892 25.864 167.596 25.128 168.492 24.6C169.404 24.072 170.46 23.808 171.66 23.808C172.828 23.808 173.836 24.072 174.684 24.6C175.548 25.112 176.212 25.792 176.676 26.64C177.14 27.488 177.372 28.432 177.372 29.472C177.372 29.632 177.372 29.808 177.372 30C177.372 30.192 177.364 30.392 177.348 30.6H167.412V28.92H174.972C174.924 27.96 174.588 27.2 173.964 26.64C173.34 26.08 172.556 25.8 171.612 25.8C170.972 25.8 170.372 25.944 169.812 26.232C169.268 26.52 168.828 26.944 168.492 27.504C168.156 28.048 167.988 28.744 167.988 29.592V30.264C167.988 31.144 168.156 31.88 168.492 32.472C168.828 33.064 169.268 33.52 169.812 33.84C170.372 34.144 170.972 34.296 171.612 34.296C172.364 34.296 172.996 34.12 173.508 33.768C174.02 33.416 174.396 32.952 174.636 32.376H177.036C176.828 33.128 176.476 33.8 175.98 34.392C175.484 34.968 174.868 35.432 174.132 35.784C173.396 36.12 172.556 36.288 171.612 36.288ZM185.439 36.288C184.271 36.288 183.239 36.016 182.343 35.472C181.463 34.928 180.775 34.184 180.279 33.24C179.783 32.296 179.535 31.224 179.535 30.024C179.535 28.824 179.783 27.76 180.279 26.832C180.775 25.888 181.471 25.152 182.367 24.624C183.263 24.08 184.287 23.808 185.439 23.808C186.399 23.808 187.239 24 187.959 24.384C188.695 24.752 189.263 25.272 189.663 25.944V18.72H192.063V36H189.903L189.663 34.128C189.407 34.496 189.087 34.848 188.703 35.184C188.319 35.504 187.855 35.768 187.311 35.976C186.767 36.184 186.143 36.288 185.439 36.288ZM185.799 34.2C186.551 34.2 187.215 34.024 187.791 33.672C188.367 33.32 188.815 32.832 189.135 32.208C189.471 31.584 189.639 30.864 189.639 30.048C189.639 29.216 189.471 28.496 189.135 27.888C188.815 27.264 188.367 26.776 187.791 26.424C187.215 26.072 186.551 25.896 185.799 25.896C185.063 25.896 184.407 26.072 183.831 26.424C183.255 26.776 182.807 27.264 182.487 27.888C182.167 28.496 182.007 29.216 182.007 30.048C182.007 30.864 182.167 31.584 182.487 32.208C182.807 32.832 183.255 33.32 183.831 33.672C184.407 34.024 185.063 34.2 185.799 34.2ZM201.509 36V19.2H207.269C208.597 19.2 209.693 19.424 210.557 19.872C211.421 20.304 212.061 20.896 212.477 21.648C212.893 22.4 213.101 23.248 213.101 24.192C213.101 25.104 212.893 25.936 212.477 26.688C212.077 27.44 211.445 28.048 210.581 28.512C209.717 28.96 208.613 29.184 207.269 29.184H203.909V36H201.509ZM203.909 27.192H207.173C208.405 27.192 209.293 26.92 209.837 26.376C210.381 25.832 210.653 25.104 210.653 24.192C210.653 23.232 210.381 22.496 209.837 21.984C209.293 21.456 208.405 21.192 207.173 21.192H203.909V27.192ZM218.921 36.288C217.913 36.288 217.081 36.128 216.425 35.808C215.769 35.472 215.281 35.024 214.961 34.464C214.641 33.904 214.481 33.296 214.481 32.64C214.481 31.856 214.681 31.184 215.081 30.624C215.497 30.064 216.089 29.632 216.857 29.328C217.641 29.024 218.577 28.872 219.665 28.872H222.809C222.809 28.184 222.697 27.616 222.473 27.168C222.265 26.72 221.953 26.384 221.537 26.16C221.121 25.92 220.617 25.8 220.025 25.8C219.289 25.8 218.649 25.984 218.105 26.352C217.577 26.704 217.257 27.224 217.145 27.912H214.745C214.841 27.032 215.137 26.296 215.633 25.704C216.129 25.096 216.761 24.632 217.529 24.312C218.313 23.976 219.145 23.808 220.025 23.808C221.145 23.808 222.089 24.008 222.857 24.408C223.625 24.808 224.209 25.376 224.609 26.112C225.009 26.832 225.209 27.688 225.209 28.68V36H223.121L222.929 33.96C222.769 34.28 222.561 34.584 222.305 34.872C222.065 35.16 221.777 35.408 221.441 35.616C221.121 35.824 220.745 35.984 220.313 36.096C219.897 36.224 219.433 36.288 218.921 36.288ZM219.377 34.344C219.905 34.344 220.377 34.24 220.793 34.032C221.209 33.824 221.561 33.544 221.849 33.192C222.137 32.824 222.353 32.424 222.497 31.992C222.657 31.544 222.745 31.08 222.761 30.6V30.576H219.905C219.201 30.576 218.633 30.656 218.201 30.816C217.785 30.976 217.481 31.2 217.289 31.488C217.097 31.776 217.001 32.112 217.001 32.496C217.001 32.864 217.089 33.192 217.265 33.48C217.457 33.752 217.729 33.968 218.081 34.128C218.433 34.272 218.865 34.344 219.377 34.344ZM228.226 36V24.096H230.386L230.578 26.376C230.85 25.848 231.194 25.392 231.61 25.008C232.026 24.624 232.514 24.328 233.074 24.12C233.65 23.912 234.298 23.808 235.018 23.808V26.328H234.346C233.834 26.328 233.346 26.392 232.882 26.52C232.434 26.648 232.034 26.856 231.682 27.144C231.346 27.432 231.082 27.832 230.89 28.344C230.714 28.84 230.626 29.464 230.626 30.216V36H228.226ZM242.146 36C241.378 36 240.714 35.88 240.154 35.64C239.594 35.4 239.162 35 238.858 34.44C238.554 33.88 238.402 33.12 238.402 32.16V26.112H236.362V24.096H238.402L238.714 21.12H240.802V24.096H244.21V26.112H240.802V32.184C240.802 32.872 240.946 33.344 241.234 33.6C241.522 33.84 242.018 33.96 242.722 33.96H244.066V36H242.146ZM246.812 36V24.096H248.948L249.116 26.184C249.5 25.448 250.044 24.872 250.748 24.456C251.452 24.024 252.268 23.808 253.196 23.808C254.156 23.808 254.98 24.008 255.668 24.408C256.356 24.792 256.884 25.376 257.252 26.16C257.636 26.944 257.828 27.936 257.828 29.136V36H255.452V29.376C255.452 28.224 255.204 27.352 254.708 26.76C254.228 26.152 253.508 25.848 252.548 25.848C251.908 25.848 251.332 26.008 250.82 26.328C250.324 26.632 249.932 27.08 249.644 27.672C249.356 28.264 249.212 28.984 249.212 29.832V36H246.812ZM266.347 36.288C265.179 36.288 264.147 36.032 263.251 35.52C262.355 34.992 261.651 34.264 261.139 33.336C260.627 32.408 260.371 31.32 260.371 30.072C260.371 28.824 260.619 27.736 261.115 26.808C261.627 25.864 262.331 25.128 263.227 24.6C264.139 24.072 265.195 23.808 266.395 23.808C267.563 23.808 268.571 24.072 269.419 24.6C270.283 25.112 270.947 25.792 271.411 26.64C271.875 27.488 272.107 28.432 272.107 29.472C272.107 29.632 272.107 29.808 272.107 30C272.107 30.192 272.099 30.392 272.083 30.6H262.147V28.92H269.707C269.659 27.96 269.323 27.2 268.699 26.64C268.075 26.08 267.291 25.8 266.347 25.8C265.707 25.8 265.107 25.944 264.547 26.232C264.003 26.52 263.563 26.944 263.227 27.504C262.891 28.048 262.723 28.744 262.723 29.592V30.264C262.723 31.144 262.891 31.88 263.227 32.472C263.563 33.064 264.003 33.52 264.547 33.84C265.107 34.144 265.707 34.296 266.347 34.296C267.099 34.296 267.731 34.12 268.243 33.768C268.755 33.416 269.131 32.952 269.371 32.376H271.771C271.563 33.128 271.211 33.8 270.715 34.392C270.219 34.968 269.603 35.432 268.867 35.784C268.131 36.12 267.291 36.288 266.347 36.288ZM274.749 36V24.096H276.909L277.101 26.376C277.373 25.848 277.717 25.392 278.133 25.008C278.549 24.624 279.037 24.328 279.597 24.12C280.173 23.912 280.821 23.808 281.541 23.808V26.328H280.869C280.357 26.328 279.869 26.392 279.405 26.52C278.957 26.648 278.557 26.856 278.205 27.144C277.869 27.432 277.605 27.832 277.413 28.344C277.237 28.84 277.149 29.464 277.149 30.216V36H274.749ZM288.429 36.288C287.453 36.288 286.573 36.12 285.789 35.784C285.021 35.448 284.405 34.984 283.941 34.392C283.477 33.784 283.197 33.072 283.101 32.256H285.525C285.621 32.64 285.789 32.992 286.029 33.312C286.269 33.616 286.589 33.864 286.989 34.056C287.405 34.248 287.885 34.344 288.429 34.344C288.957 34.344 289.389 34.272 289.725 34.128C290.061 33.968 290.309 33.76 290.469 33.504C290.629 33.248 290.709 32.976 290.709 32.688C290.709 32.256 290.597 31.928 290.373 31.704C290.149 31.48 289.821 31.304 289.389 31.176C288.973 31.048 288.469 30.92 287.877 30.792C287.397 30.68 286.901 30.544 286.389 30.384C285.877 30.224 285.413 30.024 284.997 29.784C284.581 29.528 284.245 29.216 283.989 28.848C283.733 28.464 283.605 27.992 283.605 27.432C283.605 26.744 283.781 26.128 284.133 25.584C284.501 25.024 285.021 24.592 285.693 24.288C286.365 23.968 287.165 23.808 288.093 23.808C289.405 23.808 290.469 24.128 291.285 24.768C292.117 25.392 292.597 26.296 292.725 27.48H290.421C290.341 26.936 290.101 26.512 289.701 26.208C289.301 25.904 288.757 25.752 288.069 25.752C287.397 25.752 286.877 25.888 286.509 26.16C286.157 26.432 285.981 26.792 285.981 27.24C285.981 27.512 286.085 27.76 286.293 27.984C286.517 28.192 286.829 28.368 287.229 28.512C287.645 28.656 288.133 28.792 288.693 28.92C289.477 29.08 290.197 29.28 290.853 29.52C291.525 29.76 292.069 30.104 292.485 30.552C292.917 31 293.133 31.656 293.133 32.52C293.149 33.256 292.965 33.912 292.581 34.488C292.197 35.048 291.653 35.488 290.949 35.808C290.245 36.128 289.405 36.288 288.429 36.288Z" fill="#EB8C07"/>
</svg>
