<svg width="1440" height="896" viewBox="0 0 1440 896" fill="none" xmlns="http://www.w3.org/2000/svg">
<path d="M68.5714 2.00001H0V70.6045M68.5714 2.00001V70.6045M68.5714 2.00001L137.143 2M68.5714 70.6045H0M68.5714 70.6045L137.143 70.6045M68.5714 70.6045V139.209M0 70.6045V139.209M137.143 2V70.6045M137.143 2H205.714M137.143 70.6045H205.714M137.143 70.6045V139.209M205.714 2V70.6045M205.714 2H274.286M205.714 70.6045H274.286M205.714 70.6045V139.209M274.286 2V70.6045M274.286 2H342.857M274.286 70.6045H342.857M274.286 70.6045V139.209M342.857 2V70.6045M342.857 2H411.429M342.857 70.6045H411.429M342.857 70.6045V139.209M411.429 2V70.6045M411.429 2H480M411.429 70.6045H480M411.429 70.6045V139.209M480 2V70.6045M480 2H548.571M480 70.6045H548.571M480 70.6045V139.209M548.571 2V70.6045M548.571 2H617.143M548.571 70.6045H617.143M548.571 70.6045V139.209M617.143 2V70.6045M617.143 2H685.714M617.143 70.6045H685.714M617.143 70.6045V139.209M685.714 2V70.6045M685.714 2H754.286M685.714 70.6045H754.286M685.714 70.6045V139.209M754.286 2V70.6045M754.286 2H822.857M754.286 70.6045H822.857M754.286 70.6045V139.209M822.857 2V70.6045M822.857 2H891.429M822.857 70.6045H891.429M822.857 70.6045V139.209M891.429 2V70.6045M891.429 2H960M891.429 70.6045H960M891.429 70.6045V139.209M960 2V70.6045M960 2H1028.57M960 70.6045H1028.57M960 70.6045V139.209M1028.57 2V70.6045M1028.57 2H1097.14M1028.57 70.6045H1097.14M1028.57 70.6045V139.209M1097.14 2V70.6045M1097.14 2H1165.71M1097.14 70.6045H1165.71M1097.14 70.6045V139.209M1165.71 2V70.6045M1165.71 2H1234.29M1165.71 70.6045H1234.29M1165.71 70.6045V139.209M1234.29 2V70.6045M1234.29 2H1302.86M1234.29 70.6045H1302.86M1234.29 70.6045V139.209M1302.86 2V70.6045M1302.86 2H1371.43M1302.86 70.6045H1371.43M1302.86 70.6045V139.209M1371.43 2V70.6045M1371.43 2H1440V70.6045M1371.43 70.6045H1440M1371.43 70.6045V139.209M1440 70.6045V139.209M68.5714 139.209H0M68.5714 139.209L137.143 139.209M68.5714 139.209V207.813M0 139.209V207.813M137.143 139.209H205.714M137.143 139.209V207.813M205.714 139.209H274.286M205.714 139.209V207.813M274.286 139.209H342.857M274.286 139.209V207.813M342.857 139.209H411.429M342.857 139.209V207.813M411.429 139.209H480M411.429 139.209V207.813M480 139.209H548.571M480 139.209V207.813M548.571 139.209H617.143M548.571 139.209V207.813M617.143 139.209H685.714M617.143 139.209V207.813M685.714 139.209H754.286M685.714 139.209V207.813M754.286 139.209H822.857M754.286 139.209V207.813M822.857 139.209H891.429M822.857 139.209V207.813M891.429 139.209H960M891.429 139.209V207.813M960 139.209H1028.57M960 139.209V207.813M1028.57 139.209H1097.14M1028.57 139.209V207.813M1097.14 139.209H1165.71M1097.14 139.209V207.813M1165.71 139.209H1234.29M1165.71 139.209V207.813M1234.29 139.209H1302.86M1234.29 139.209V207.813M1302.86 139.209H1371.43M1302.86 139.209V207.813M1371.43 139.209H1440M1371.43 139.209V207.813M1440 139.209V207.813M68.5714 207.813H0M68.5714 207.813L137.143 207.813M68.5714 207.813V276.418M0 207.813V276.418M137.143 207.813H205.714M137.143 207.813V276.418M205.714 207.813H274.286M205.714 207.813V276.418M274.286 207.813H342.857M274.286 207.813V276.418M342.857 207.813H411.429M342.857 207.813V276.418M411.429 207.813H480M411.429 207.813V276.418M480 207.813H548.571M480 207.813V276.418M548.571 207.813H617.143M548.571 207.813V276.418M617.143 207.813H685.714M617.143 207.813V276.418M685.714 207.813H754.286M685.714 207.813V276.418M754.286 207.813H822.857M754.286 207.813V276.418M822.857 207.813H891.429M822.857 207.813V276.418M891.429 207.813H960M891.429 207.813V276.418M960 207.813H1028.57M960 207.813V276.418M1028.57 207.813H1097.14M1028.57 207.813V276.418M1097.14 207.813H1165.71M1097.14 207.813V276.418M1165.71 207.813H1234.29M1165.71 207.813V276.418M1234.29 207.813H1302.86M1234.29 207.813V276.418M1302.86 207.813H1371.43M1302.86 207.813V276.418M1371.43 207.813H1440M1371.43 207.813V276.418M1440 207.813V276.418M68.5714 276.418H0M68.5714 276.418L137.143 276.418M68.5714 276.418V345.022M0 276.418V345.022M137.143 276.418H205.714M137.143 276.418V345.022M205.714 276.418H274.286M205.714 276.418V345.022M274.286 276.418H342.857M274.286 276.418V345.022M342.857 276.418H411.429M342.857 276.418V345.022M411.429 276.418H480M411.429 276.418V345.022M480 276.418H548.571M480 276.418V345.022M548.571 276.418H617.143M548.571 276.418V345.022M617.143 276.418H685.714M617.143 276.418V345.022M685.714 276.418H754.286M685.714 276.418V345.022M754.286 276.418H822.857M754.286 276.418V345.022M822.857 276.418H891.429M822.857 276.418V345.022M891.429 276.418H960M891.429 276.418V345.022M960 276.418H1028.57M960 276.418V345.022M1028.57 276.418H1097.14M1028.57 276.418L1028.57 345.022M1097.14 276.418H1165.71M1097.14 276.418L1097.14 345.022M1165.71 276.418H1234.29M1165.71 276.418L1165.71 345.022M1234.29 276.418H1302.86M1234.29 276.418L1234.29 345.022M1302.86 276.418H1371.43M1302.86 276.418L1302.86 345.022M1371.43 276.418H1440M1371.43 276.418L1371.43 345.022M1440 276.418L1440 345.022M68.5714 345.022H0M68.5714 345.022L137.143 345.022M68.5714 345.022V413.627M0 345.022V413.627M137.143 345.022H205.714M137.143 345.022V413.627M205.714 345.022H274.286M205.714 345.022V413.627M274.286 345.022L342.857 345.022M274.286 345.022V413.627M342.857 345.022H411.429M342.857 345.022V413.627M411.429 345.022H480M411.429 345.022V413.627M480 345.022H548.571M480 345.022V413.627M548.571 345.022H617.143M548.571 345.022V413.627M617.143 345.022H685.714M617.143 345.022V413.627M685.714 345.022H754.286M685.714 345.022V413.627M754.286 345.022H822.857M754.286 345.022V413.627M822.857 345.022H891.429M822.857 345.022V413.627M891.429 345.022H960M891.429 345.022V413.627M960 345.022H1028.57M960 345.022V413.627M1028.57 345.022H1097.14M1028.57 345.022L1028.57 413.627M1097.14 345.022H1165.71M1097.14 345.022L1097.14 413.627M1165.71 345.022H1234.29M1165.71 345.022L1165.71 413.627M1234.29 345.022H1302.86M1234.29 345.022L1234.29 413.627M1302.86 345.022H1371.43M1302.86 345.022L1302.86 413.627M1371.43 345.022H1440M1371.43 345.022L1371.43 413.627M1440 345.022L1440 413.627M68.5714 413.627H0M68.5714 413.627H137.143M68.5714 413.627V482.231M0 413.627V482.231M137.143 413.627H205.714M137.143 413.627V482.231M205.714 413.627H274.286M205.714 413.627V482.231M274.286 413.627H342.857M274.286 413.627V482.231M342.857 413.627H411.429M342.857 413.627V482.231M411.429 413.627H480M411.429 413.627V482.231M480 413.627H548.571M480 413.627V482.231M548.571 413.627H617.143M548.571 413.627V482.231M617.143 413.627H685.714M617.143 413.627V482.231M685.714 413.627H754.286M685.714 413.627V482.231M754.286 413.627H822.857M754.286 413.627V482.231M822.857 413.627H891.429M822.857 413.627V482.231M891.429 413.627H960M891.429 413.627V482.231M960 413.627H1028.57M960 413.627V482.231M1028.57 413.627H1097.14M1028.57 413.627V482.231M1097.14 413.627H1165.71M1097.14 413.627V482.231M1165.71 413.627H1234.29M1165.71 413.627V482.231M1234.29 413.627H1302.86M1234.29 413.627V482.231M1302.86 413.627H1371.43M1302.86 413.627V482.231M1371.43 413.627H1440M1371.43 413.627V482.231M1440 413.627V482.231M68.5714 482.231H0M68.5714 482.231H137.143M68.5714 482.231V550.836M0 482.231V550.836M137.143 482.231H205.714M137.143 482.231V550.836M205.714 482.231H274.286M205.714 482.231V550.836M274.286 482.231H342.857M274.286 482.231V550.836M342.857 482.231H411.429M342.857 482.231V550.836M411.429 482.231H480M411.429 482.231V550.836M480 482.231H548.571M480 482.231V550.836M548.571 482.231H617.143M548.571 482.231V550.836M617.143 482.231H685.714M617.143 482.231V550.836M685.714 482.231H754.286M685.714 482.231V550.836M754.286 482.231H822.857M754.286 482.231V550.836M822.857 482.231H891.429M822.857 482.231V550.836M891.429 482.231H960M891.429 482.231V550.836M960 482.231H1028.57M960 482.231V550.836M1028.57 482.231H1097.14M1028.57 482.231L1028.57 550.836M1097.14 482.231H1165.71M1097.14 482.231L1097.14 550.836M1165.71 482.231H1234.29M1165.71 482.231L1165.71 550.836M1234.29 482.231H1302.86M1234.29 482.231L1234.29 550.836M1302.86 482.231H1371.43M1302.86 482.231L1302.86 550.836M1371.43 482.231H1440M1371.43 482.231L1371.43 550.836M1440 482.231L1440 550.836M68.5714 550.836H0M68.5714 550.836L137.143 550.836M68.5714 550.836V619.44M0 550.836V619.44M137.143 550.836H205.714M137.143 550.836V619.44M205.714 550.836H274.286M205.714 550.836V619.44M274.286 550.836H342.857M274.286 550.836V619.44M342.857 550.836L411.429 550.836M342.857 550.836V619.44M411.429 550.836H480M411.429 550.836V619.44M480 550.836H548.571M480 550.836V619.44M548.571 550.836H617.143M548.571 550.836V619.44M617.143 550.836H685.714M617.143 550.836V619.44M685.714 550.836H754.286M685.714 550.836V619.44M754.286 550.836H822.857M754.286 550.836V619.44M822.857 550.836H891.429M822.857 550.836V619.44M891.429 550.836H960M891.429 550.836V619.44M960 550.836H1028.57M960 550.836V619.44M1028.57 550.836H1097.14M1028.57 550.836L1028.57 619.44M1097.14 550.836H1165.71M1097.14 550.836L1097.14 619.44M1165.71 550.836H1234.29M1165.71 550.836L1165.71 619.44M1234.29 550.836H1302.86M1234.29 550.836L1234.29 619.44M1302.86 550.836H1371.43M1302.86 550.836L1302.86 619.44M1371.43 550.836H1440M1371.43 550.836L1371.43 619.44M1440 550.836L1440 619.44M68.5714 619.44H0M68.5714 619.44H137.143M68.5714 619.44V688.045M0 619.44V688.045M137.143 619.44H205.714M137.143 619.44V688.045M205.714 619.44H274.286M205.714 619.44V688.045M274.286 619.44H342.857M274.286 619.44V688.045M342.857 619.44H411.429M342.857 619.44V688.045M411.429 619.44H480M411.429 619.44V688.045M480 619.44H548.571M480 619.44V688.045M548.571 619.44H617.143M548.571 619.44V688.045M617.143 619.44H685.714M617.143 619.44V688.045M685.714 619.44H754.286M685.714 619.44V688.045M754.286 619.44H822.857M754.286 619.44V688.045M822.857 619.44H891.429M822.857 619.44V688.045M891.429 619.44H960M891.429 619.44V688.045M960 619.44H1028.57M960 619.44V688.045M1028.57 619.44H1097.14M1028.57 619.44V688.045M1097.14 619.44H1165.71M1097.14 619.44V688.045M1165.71 619.44H1234.29M1165.71 619.44V688.045M1234.29 619.44H1302.86M1234.29 619.44V688.045M1302.86 619.44H1371.43M1302.86 619.44V688.045M1371.43 619.44H1440M1371.43 619.44V688.045M1440 619.44V688.045M68.5714 688.045H0M68.5714 688.045L137.143 688.045M68.5714 688.045V756.649M0 688.045V756.649M137.143 688.045H205.714M137.143 688.045V756.649M205.714 688.045H274.286M205.714 688.045V756.649M274.286 688.045H342.857M274.286 688.045V756.649M342.857 688.045H411.429M342.857 688.045V756.649M411.429 688.045H480M411.429 688.045V756.649M480 688.045H548.571M480 688.045V756.649M548.571 688.045H617.143M548.571 688.045V756.649M617.143 688.045H685.714M617.143 688.045V756.649M685.714 688.045H754.286M685.714 688.045V756.649M754.286 688.045H822.857M754.286 688.045V756.649M822.857 688.045H891.429M822.857 688.045V756.649M891.429 688.045H960M891.429 688.045V756.649M960 688.045H1028.57M960 688.045V756.649M1028.57 688.045H1097.14M1028.57 688.045V756.649M1097.14 688.045H1165.71M1097.14 688.045V756.649M1165.71 688.045H1234.29M1165.71 688.045V756.649M1234.29 688.045H1302.86M1234.29 688.045V756.649M1302.86 688.045H1371.43M1302.86 688.045V756.649M1371.43 688.045H1440M1371.43 688.045V756.649M1440 688.045V756.649M68.5714 756.649H0M68.5714 756.649H137.143M68.5714 756.649V825.254M0 756.649V825.254M137.143 756.649H205.714M137.143 756.649V825.254M205.714 756.649H274.286M205.714 756.649V825.254M274.286 756.649H342.857M274.286 756.649V825.254M342.857 756.649H411.429M342.857 756.649V825.254M411.429 756.649H480M411.429 756.649V825.254M480 756.649H548.571M480 756.649V825.254M548.571 756.649H617.143M548.571 756.649V825.254M617.143 756.649H685.714M617.143 756.649V825.254M685.714 756.649H754.286M685.714 756.649V825.254M754.286 756.649H822.857M754.286 756.649V825.254M822.857 756.649H891.429M822.857 756.649V825.254M891.429 756.649H960M891.429 756.649V825.254M960 756.649H1028.57M960 756.649V825.254M1028.57 756.649H1097.14M1028.57 756.649V825.254M1097.14 756.649H1165.71M1097.14 756.649V825.254M1165.71 756.649H1234.29M1165.71 756.649V825.254M1234.29 756.649H1302.86M1234.29 756.649V825.254M1302.86 756.649H1371.43M1302.86 756.649V825.254M1371.43 756.649H1440M1371.43 756.649V825.254M1440 756.649V825.254M68.5714 825.254H0M68.5714 825.254H137.143M68.5714 825.254V893.858M0 825.254V893.858H68.5714M137.143 825.254H205.714M137.143 825.254V893.858M205.714 825.254H274.286M205.714 825.254V893.858M274.286 825.254H342.857M274.286 825.254V893.858M342.857 825.254H411.429M342.857 825.254V893.858M411.429 825.254H480M411.429 825.254V893.858M480 825.254H548.571M480 825.254V893.858M548.571 825.254H617.143M548.571 825.254V893.858M617.143 825.254H685.714M617.143 825.254V893.858M685.714 825.254H754.286M685.714 825.254V893.858M754.286 825.254H822.857M754.286 825.254V893.858M822.857 825.254H891.429M822.857 825.254V893.858M891.429 825.254H960M891.429 825.254V893.858M960 825.254H1028.57M960 825.254V893.858M1028.57 825.254H1097.14M1028.57 825.254V893.858M1097.14 825.254H1165.71M1097.14 825.254V893.858M1165.71 825.254H1234.29M1165.71 825.254V893.858M1234.29 825.254H1302.86M1234.29 825.254V893.858M1302.86 825.254H1371.43M1302.86 825.254V893.858M1371.43 825.254H1440M1371.43 825.254V893.858M1440 825.254V893.858H1371.43M68.5714 893.858L137.143 893.858M137.143 893.858H205.714M205.714 893.858H274.286M274.286 893.858H342.857M342.857 893.858H411.429M411.429 893.858H480M480 893.858H548.571M548.571 893.858H617.143M617.143 893.858H685.714M685.714 893.858H754.286M754.286 893.858H822.857M822.857 893.858H891.429M891.429 893.858H960M960 893.858H1028.57M1028.57 893.858H1097.14M1097.14 893.858H1165.71M1165.71 893.858H1234.29M1234.29 893.858H1302.86M1302.86 893.858H1371.43" stroke="url(#paint0_linear_21_577)" stroke-opacity="0.2" stroke-width="2.5"/>
<defs>
<linearGradient id="paint0_linear_21_577" x1="-4.33244e-06" y1="12.5" x2="82.5" y2="765.5" gradientUnits="userSpaceOnUse">
<stop stop-color="white"/>
<stop offset="1" stop-color="#999999" stop-opacity="0"/>
</linearGradient>
</defs>
</svg>
