<svg width="277" height="277" viewBox="0 0 277 277" fill="none" xmlns="http://www.w3.org/2000/svg">
<path d="M3.01592 17.2116C0.220049 8.17882 -1.17789 3.66241 1.24226 1.24226C3.66241 -1.17789 8.17881 0.220049 17.2116 3.01592L87.8244 24.8722C98.5559 28.1939 106.958 36.5958 110.279 47.3273L138.499 138.499L47.3273 110.279C36.5958 106.958 28.1939 98.5559 24.8722 87.8244L3.01592 17.2116Z" fill="url(#paint0_radial_177_116)"/>
<path d="M138.503 138.5L229.672 166.719C240.404 170.041 248.806 178.443 252.127 189.174L273.984 259.787C276.78 268.82 278.177 273.336 275.757 275.756C273.337 278.177 268.821 276.779 259.788 273.983L189.175 252.126C178.444 248.805 170.042 240.403 166.72 229.671L138.501 138.502L110.282 229.673C106.96 240.404 98.558 248.806 87.8265 252.128L17.2138 273.984C8.18095 276.78 3.66455 278.178 1.2444 275.758C-1.17575 273.338 0.222184 268.821 3.01805 259.788L24.8744 189.176C28.196 178.444 36.598 170.042 47.3294 166.721L138.501 138.501L166.72 47.3286C170.042 36.5971 178.444 28.1952 189.176 24.8736L259.788 3.01724C268.821 0.221375 273.338 -1.17656 275.758 1.24359C278.178 3.66374 276.78 8.18014 273.984 17.2129L252.128 87.8257C248.806 98.5572 240.404 106.959 229.673 110.281L138.503 138.5Z" fill="url(#paint1_radial_177_116)"/>
<defs>
<radialGradient id="paint0_radial_177_116" cx="0" cy="0" r="1" gradientUnits="userSpaceOnUse" gradientTransform="translate(138.5 138.5) rotate(90) scale(138.5 138.5)">
<stop stop-color="white"/>
<stop offset="1" stop-color="white" stop-opacity="0.5"/>
</radialGradient>
<radialGradient id="paint1_radial_177_116" cx="0" cy="0" r="1" gradientUnits="userSpaceOnUse" gradientTransform="translate(138.5 138.5) rotate(90) scale(138.5 138.5)">
<stop stop-color="white"/>
<stop offset="1" stop-color="white" stop-opacity="0.5"/>
</radialGradient>
</defs>
</svg>
