<svg width="64" height="64" viewBox="0 0 64 64" fill="none" xmlns="http://www.w3.org/2000/svg">
<rect opacity="0.15" x="1.37769" y="0.75" width="61.8724" height="61.8724" rx="30.9362" fill="#EB8C07" stroke="#EB8C07" stroke-width="1.5"/>
<path fill-rule="evenodd" clip-rule="evenodd" d="M32.0087 27.5036L32.0545 28.2767L31.2913 28.1821C28.5134 27.8192 26.0865 26.5885 24.0259 24.5216L23.0186 23.496L22.7591 24.2534C22.2096 25.9416 22.5607 27.7245 23.7054 28.9236C24.316 29.5863 24.1786 29.681 23.1254 29.2865C22.7591 29.1603 22.4386 29.0656 22.408 29.1129C22.3012 29.2234 22.6675 30.6592 22.9575 31.2272C23.3544 32.0161 24.1633 32.7892 25.0486 33.2467L25.7965 33.6096L24.9112 33.6254C24.0565 33.6254 24.0259 33.6412 24.1175 33.9725C24.4228 34.9981 25.6286 36.0867 26.9718 36.5601L27.9181 36.8914L27.0939 37.3963C25.8728 38.1221 24.4381 38.5323 23.0033 38.5639C22.3165 38.5796 21.7517 38.6427 21.7517 38.6901C21.7517 38.8479 23.6138 39.7314 24.6975 40.0785C27.9486 41.1041 31.8103 40.6623 34.7103 38.911C36.7709 37.6645 38.8314 35.1874 39.793 32.7892C40.3119 31.5112 40.8309 29.1761 40.8309 28.0558C40.8309 27.3301 40.8767 27.2354 41.7314 26.3676C42.2351 25.8627 42.7083 25.3105 42.7999 25.1527C42.9525 24.8529 42.9372 24.8529 42.1588 25.1212C40.8614 25.5945 40.6783 25.5314 41.3193 24.8214C41.7925 24.3165 42.3572 23.4014 42.3572 23.1332C42.3572 23.0858 42.1283 23.1647 41.8688 23.3067C41.5941 23.4645 40.9835 23.7012 40.5256 23.8432L39.7014 24.1114L38.9535 23.5907C38.5414 23.3067 37.9614 22.9912 37.6561 22.8965C36.8777 22.6756 35.6872 22.7072 34.985 22.9596C33.0771 23.6696 31.8713 25.4998 32.0087 27.5036Z" fill="#EB8C07"/>
</svg>
