<svg width="42" height="42" viewBox="0 0 42 42" fill="none" xmlns="http://www.w3.org/2000/svg">
<path d="M6 0.375C2.91563 0.375 0.375 2.91563 0.375 6V41.625H26.625V28.5H30.375V36C30.375 39.0844 32.9156 41.625 36 41.625C39.0844 41.625 41.625 39.0844 41.625 36V16.8975C41.625 15.405 41.0381 14.0287 39.9844 12.9731L31.1362 4.125L28.5 6.76125L33.8325 12.0938C31.8188 12.9506 30.375 14.9362 30.375 17.25C30.375 20.3344 32.9156 22.875 36 22.875C36.6405 22.8651 37.2746 22.7459 37.875 22.5225V36C37.875 37.0612 37.0612 37.875 36 37.875C34.9388 37.875 34.125 37.0612 34.125 36V28.5C34.125 26.4487 32.4263 24.75 30.375 24.75H26.625V6C26.625 2.91563 24.0844 0.375 21 0.375H6ZM6 4.125H21C22.0613 4.125 22.875 4.93875 22.875 6V13.5H4.125V6C4.125 4.93875 4.93875 4.125 6 4.125ZM36 15.375C37.0556 15.375 37.875 16.1962 37.875 17.25C37.875 18.3037 37.0537 19.125 36 19.125C34.9463 19.125 34.125 18.3037 34.125 17.25C34.125 16.1962 34.9463 15.375 36 15.375ZM4.125 17.25H22.875V37.875H4.125V17.25Z" fill="#FAB12F"/>
</svg>
