<svg width="50" height="36" viewBox="0 0 50 36" fill="none" xmlns="http://www.w3.org/2000/svg">
<path d="M40.0001 13C40.0001 12.3369 39.7367 11.7011 39.2679 11.2322C38.799 10.7634 38.1631 10.5 37.5001 10.5H8.5251L14.2751 4.77498C14.7459 4.30422 15.0103 3.66573 15.0103 2.99998C15.0103 2.33422 14.7459 1.69573 14.2751 1.22498C13.8043 0.754216 13.1659 0.489746 12.5001 0.489746C11.8344 0.489746 11.1959 0.754216 10.7251 1.22498L0.725105 11.225C0.37821 11.5765 0.14322 12.023 0.0497846 12.5079C-0.0436508 12.9929 0.00865591 13.4947 0.200104 13.95C0.387655 14.4065 0.706149 14.7973 1.11545 15.0732C1.52475 15.349 2.00654 15.4975 2.5001 15.5H37.5001C38.1631 15.5 38.799 15.2366 39.2679 14.7677C39.7367 14.2989 40.0001 13.663 40.0001 13ZM49.8001 22.05C49.6126 21.5934 49.2941 21.2026 48.8848 20.9268C48.4755 20.6509 47.9937 20.5024 47.5001 20.5H12.5001C11.8371 20.5 11.2012 20.7634 10.7323 21.2322C10.2635 21.7011 10.0001 22.3369 10.0001 23C10.0001 23.663 10.2635 24.2989 10.7323 24.7677C11.2012 25.2366 11.8371 25.5 12.5001 25.5H41.4751L35.7251 31.225C35.4908 31.4574 35.3048 31.7339 35.1779 32.0385C35.051 32.3432 34.9856 32.6699 34.9856 33C34.9856 33.33 35.051 33.6568 35.1779 33.9614C35.3048 34.2661 35.4908 34.5426 35.7251 34.775C35.9575 35.0093 36.234 35.1953 36.5387 35.3222C36.8433 35.4491 37.1701 35.5145 37.5001 35.5145C37.8301 35.5145 38.1569 35.4491 38.4615 35.3222C38.7662 35.1953 39.0427 35.0093 39.2751 34.775L49.2751 24.775C49.622 24.4234 49.857 23.977 49.9504 23.492C50.0439 23.007 49.9916 22.5053 49.8001 22.05Z" fill="#FAB12F"/>
</svg>
