<svg width="26" height="26" viewBox="0 0 26 26" fill="none" xmlns="http://www.w3.org/2000/svg">
<path fill-rule="evenodd" clip-rule="evenodd" d="M4.50628 10.2438C4.77163 9.98775 5.12691 9.84617 5.49563 9.84955C5.86434 9.85292 6.21698 10.001 6.47759 10.2618C6.7382 10.5227 6.88592 10.8755 6.88895 11.2442C6.89198 11.6129 6.75007 11.9681 6.49378 12.2332L5.13066 13.5963C4.18181 14.564 3.65328 15.8671 3.65994 17.2224C3.66661 18.5776 4.20794 19.8755 5.16627 20.8338C6.12459 21.7921 7.42244 22.3335 8.7777 22.3401C10.133 22.3468 11.4361 21.8183 12.4038 20.8694L13.7669 19.5063C14.0335 19.2579 14.3861 19.1227 14.7504 19.1291C15.1147 19.1355 15.4623 19.2831 15.7199 19.5407C15.9776 19.7984 16.1252 20.146 16.1316 20.5103C16.138 20.8746 16.0028 21.2272 15.7544 21.4938L14.3932 22.8569C12.8947 24.3168 10.8816 25.1278 8.7896 25.1142C6.69761 25.1005 4.69518 24.2635 3.21589 22.7842C1.7366 21.3049 0.899524 19.3025 0.885911 17.2105C0.872298 15.1185 1.68325 13.1053 3.14316 11.6069L4.50628 10.2438ZM19.5063 13.7669C19.2579 14.0335 19.1227 14.3861 19.1291 14.7504C19.1355 15.1147 19.2831 15.4623 19.5407 15.7199C19.7984 15.9776 20.146 16.1252 20.5103 16.1316C20.8746 16.138 21.2272 16.0028 21.4938 15.7544L22.8569 14.3932C24.3168 12.8947 25.1278 10.8816 25.1142 8.7896C25.1005 6.69761 24.2635 4.69518 22.7842 3.21589C21.3049 1.7366 19.3025 0.899524 17.2105 0.885911C15.1185 0.872298 13.1053 1.68325 11.6069 3.14316L10.2438 4.50628C9.98775 4.77163 9.84617 5.12691 9.84955 5.49563C9.85292 5.86434 10.001 6.21698 10.2618 6.47759C10.5227 6.7382 10.8755 6.88592 11.2442 6.88895C11.6129 6.89198 11.9681 6.75007 12.2332 6.49378L13.5963 5.13066C14.564 4.18181 15.8671 3.65328 17.2224 3.65994C18.5776 3.66661 19.8755 4.20794 20.8338 5.16627C21.7921 6.12459 22.3335 7.42244 22.3401 8.7777C22.3468 10.133 21.8183 11.4361 20.8694 12.4038L19.5063 13.7669ZM17.7438 10.2438C17.8819 10.115 17.9928 9.95979 18.0696 9.78729C18.1465 9.61479 18.1878 9.42858 18.1911 9.23976C18.1945 9.05095 18.1597 8.86339 18.089 8.68829C18.0183 8.51318 17.913 8.35412 17.7795 8.22059C17.6459 8.08705 17.4869 7.98178 17.3118 7.91105C17.1367 7.84033 16.9491 7.80559 16.7603 7.80892C16.5715 7.81226 16.3853 7.85358 16.2128 7.93044C16.0403 8.0073 15.885 8.11812 15.7563 8.25628L8.25628 15.7563C8.11812 15.885 8.0073 16.0403 7.93044 16.2128C7.85358 16.3853 7.81226 16.5715 7.80892 16.7603C7.80559 16.9491 7.84033 17.1367 7.91105 17.3118C7.98178 17.4869 8.08705 17.6459 8.22059 17.7795C8.35412 17.913 8.51318 18.0183 8.68829 18.089C8.86339 18.1597 9.05095 18.1945 9.23976 18.1911C9.42858 18.1878 9.61479 18.1465 9.78729 18.0696C9.95979 17.9928 10.115 17.8819 10.2438 17.7438L17.7438 10.2438Z" fill="#EB8C07"/>
</svg>
