<svg width="220" height="56" viewBox="0 0 220 56" fill="none" xmlns="http://www.w3.org/2000/svg">
<rect width="220" height="56" rx="20" fill="#FEF3E2"/>
<path d="M41.7099 27L37.7099 20C37.5363 19.6992 37.2873 19.4488 36.9874 19.2734C36.6876 19.0981 36.3473 19.0038 35.9999 19H27.9999C27.6543 19.0056 27.316 19.1006 27.0181 19.2759C26.7202 19.4511 26.4727 19.7006 26.2999 20L22.2999 27C22.1244 27.304 22.032 27.6489 22.032 28C22.032 28.3511 22.1244 28.696 22.2999 29L26.2999 36C26.4727 36.2994 26.7202 36.5489 27.0181 36.7241C27.316 36.8994 27.6543 36.9944 27.9999 37H35.9999C36.3524 37.0014 36.6989 36.9096 37.0044 36.734C37.31 36.5584 37.5637 36.3052 37.7399 36L41.7399 29C41.9109 28.6933 41.9982 28.3471 41.9929 27.996C41.9876 27.6449 41.89 27.3014 41.7099 27ZM31.9999 30C31.6044 30 31.2177 29.8827 30.8888 29.6629C30.5599 29.4432 30.3035 29.1308 30.1522 28.7654C30.0008 28.3999 29.9612 27.9978 30.0384 27.6098C30.1155 27.2219 30.306 26.8655 30.5857 26.5858C30.8654 26.3061 31.2218 26.1156 31.6098 26.0384C31.9977 25.9613 32.3998 26.0009 32.7653 26.1522C33.1307 26.3036 33.4431 26.56 33.6629 26.8889C33.8826 27.2178 33.9999 27.6044 33.9999 28C33.9999 28.5304 33.7892 29.0391 33.4141 29.4142C33.0391 29.7893 32.5304 30 31.9999 30Z" fill="#FAB12F"/>
<path d="M65.16 36L60.624 19.2H63.192L66.6 33.192L70.512 19.2H73.152L76.968 33.24L80.4 19.2H82.992L78.336 36H75.552L71.784 22.632L67.92 36H65.16ZM85.2101 36V18.72H87.6101V25.872C88.0101 25.168 88.5621 24.616 89.2661 24.216C89.9861 23.816 90.7781 23.616 91.6421 23.616C92.6021 23.616 93.4261 23.816 94.1141 24.216C94.8021 24.6 95.3301 25.184 95.6981 25.968C96.0661 26.736 96.2501 27.704 96.2501 28.872V36H93.8741V29.112C93.8741 27.992 93.6341 27.144 93.1541 26.568C92.6741 25.976 91.9621 25.68 91.0181 25.68C90.3781 25.68 89.8021 25.832 89.2901 26.136C88.7781 26.44 88.3701 26.888 88.0661 27.48C87.7621 28.056 87.6101 28.76 87.6101 29.592V36H85.2101ZM104.769 36.288C103.633 36.288 102.609 36.024 101.697 35.496C100.801 34.968 100.089 34.232 99.5612 33.288C99.0492 32.328 98.7932 31.224 98.7932 29.976C98.7932 28.696 99.0572 27.584 99.5852 26.64C100.113 25.68 100.833 24.936 101.745 24.408C102.657 23.88 103.681 23.616 104.817 23.616C105.969 23.616 106.993 23.88 107.889 24.408C108.785 24.936 109.489 25.672 110.001 26.616C110.529 27.56 110.793 28.672 110.793 29.952C110.793 31.232 110.529 32.344 110.001 33.288C109.489 34.232 108.777 34.968 107.865 35.496C106.953 36.024 105.921 36.288 104.769 36.288ZM104.769 34.224C105.425 34.224 106.017 34.064 106.545 33.744C107.089 33.424 107.521 32.952 107.841 32.328C108.177 31.688 108.345 30.896 108.345 29.952C108.345 29.008 108.185 28.224 107.865 27.6C107.545 26.96 107.113 26.48 106.569 26.16C106.041 25.84 105.457 25.68 104.817 25.68C104.177 25.68 103.585 25.84 103.041 26.16C102.497 26.48 102.057 26.96 101.721 27.6C101.401 28.224 101.241 29.008 101.241 29.952C101.241 30.896 101.401 31.688 101.721 32.328C102.057 32.952 102.489 33.424 103.017 33.744C103.561 34.064 104.145 34.224 104.769 34.224ZM123.215 36L118.679 19.2H121.247L124.655 33.192L128.567 19.2H131.207L135.023 33.24L138.455 19.2H141.047L136.391 36H133.607L129.839 22.632L125.975 36H123.215ZM147.519 36.288C146.351 36.288 145.319 36.032 144.423 35.52C143.527 34.992 142.823 34.264 142.311 33.336C141.799 32.408 141.543 31.32 141.543 30.072C141.543 28.824 141.791 27.736 142.287 26.808C142.799 25.864 143.503 25.128 144.399 24.6C145.311 24.072 146.367 23.808 147.567 23.808C148.735 23.808 149.743 24.072 150.591 24.6C151.455 25.112 152.119 25.792 152.583 26.64C153.047 27.488 153.279 28.432 153.279 29.472C153.279 29.632 153.279 29.808 153.279 30C153.279 30.192 153.271 30.392 153.255 30.6H143.319V28.92H150.879C150.831 27.96 150.495 27.2 149.871 26.64C149.247 26.08 148.463 25.8 147.519 25.8C146.879 25.8 146.279 25.944 145.719 26.232C145.175 26.52 144.735 26.944 144.399 27.504C144.063 28.048 143.895 28.744 143.895 29.592V30.264C143.895 31.144 144.063 31.88 144.399 32.472C144.735 33.064 145.175 33.52 145.719 33.84C146.279 34.144 146.879 34.296 147.519 34.296C148.271 34.296 148.903 34.12 149.415 33.768C149.927 33.416 150.303 32.952 150.543 32.376H152.943C152.735 33.128 152.383 33.8 151.887 34.392C151.391 34.968 150.775 35.432 150.039 35.784C149.303 36.12 148.463 36.288 147.519 36.288ZM161.054 36L167.246 19.2H169.862L176.006 36H173.462L168.542 22.08L163.574 36H161.054ZM163.862 31.848L164.51 29.928H172.43L173.078 31.848H163.862ZM178.304 36V24.096H180.464L180.656 26.376C180.928 25.848 181.272 25.392 181.688 25.008C182.104 24.624 182.592 24.328 183.152 24.12C183.728 23.912 184.376 23.808 185.096 23.808V26.328H184.424C183.912 26.328 183.424 26.392 182.96 26.52C182.512 26.648 182.112 26.856 181.76 27.144C181.424 27.432 181.16 27.832 180.968 28.344C180.792 28.84 180.704 29.464 180.704 30.216V36H178.304ZM192.448 36.288C191.28 36.288 190.248 36.032 189.352 35.52C188.456 34.992 187.752 34.264 187.24 33.336C186.728 32.408 186.472 31.32 186.472 30.072C186.472 28.824 186.72 27.736 187.216 26.808C187.728 25.864 188.432 25.128 189.328 24.6C190.24 24.072 191.296 23.808 192.496 23.808C193.664 23.808 194.672 24.072 195.52 24.6C196.384 25.112 197.048 25.792 197.512 26.64C197.976 27.488 198.208 28.432 198.208 29.472C198.208 29.632 198.208 29.808 198.208 30C198.208 30.192 198.2 30.392 198.184 30.6H188.248V28.92H195.808C195.76 27.96 195.424 27.2 194.8 26.64C194.176 26.08 193.392 25.8 192.448 25.8C191.808 25.8 191.208 25.944 190.648 26.232C190.104 26.52 189.664 26.944 189.328 27.504C188.992 28.048 188.824 28.744 188.824 29.592V30.264C188.824 31.144 188.992 31.88 189.328 32.472C189.664 33.064 190.104 33.52 190.648 33.84C191.208 34.144 191.808 34.296 192.448 34.296C193.2 34.296 193.832 34.12 194.344 33.768C194.856 33.416 195.232 32.952 195.472 32.376H197.872C197.664 33.128 197.312 33.8 196.816 34.392C196.32 34.968 195.704 35.432 194.968 35.784C194.232 36.12 193.392 36.288 192.448 36.288Z" fill="#EB8C07"/>
</svg>
